# AST/ASF file generated using VICON BodyLanguage
# -----------------------------------------------
:version 1.10
:name VICON
:units
  mass 1.0
  length 0.45
  angle deg
:documentation
   .ast/.asf automatically generated from VICON data using
   VICON BodyBuilder and BodyLanguage model FoxedUp or BRILLIANT.MOD
:root
   order TX TY TZ RX RY RZ
   axis XYZ
   position 0 0 0  
   orientation 0 0 0 
:bonedata
  begin
     id 1 
     name lhipjoint
     direction 0.643272 -0.706573 0.294883 
     length 2.58915 
     axis 0 0 0  XYZ
  end
  begin
     id 2 
     name lfemur
     direction 0.34202 -0.939693 0  
     length 7.06802  
     axis 0 0 20  XYZ
    dof rx ry rz
    limits (-160.0 20.0)
           (-70.0 70.0)
           (-60.0 70.0)
  end
  begin
     id 3 
     name ltibia
     direction 0.34202 -0.939693 0   
     length 7.94147   
     axis 0 0 20   XYZ
    dof rx
    limits (-10.0 170.0)
  end
  begin
     id 4 
     name lfoot
     direction 0.0435058 -0.119531 0.991877   
     length 1.8399   
     axis -90 7.62852e-016 20   XYZ
    dof rx rz
    limits (-45.0 90.0)
           (-70.0 20.0)
  end
  begin
     id 5 
     name ltoes
     direction 1.53505e-011 -4.22157e-011 1   
     length 0.934412   
     axis -90 7.62852e-016 20   XYZ
    dof rx
    limits (-90.0 20.0)
  end
  begin
     id 6 
     name rhipjoint
     direction -0.636801 -0.711547 0.296959   
     length 2.57105  
     axis 0 0 0  XYZ 
  end
  begin
     id 7 
     name rfemur
     direction -0.34202 -0.939693 0   
     length 7.03285   
     axis 0 0 -20   XYZ
    dof rx ry rz
    limits (-160.0 20.0)
           (-70.0 70.0)
           (-70.0 60.0)
  end
  begin
     id 8 
     name rtibia
     direction -0.34202 -0.939693 0   
     length 7.99111   
     axis 0 0 -20   XYZ
    dof rx
    limits (-10.0 170.0)
 end
 begin
     id 9 
     name rfoot
     direction -0.0783088 -0.215152 0.973436   
     length 1.98785  
     axis -90 -7.62852e-016 -20   XYZ
    dof rx rz
    limits (-45.0 90.0)
           (-20.0 70.0)
  end
  begin
     id 10 
     name rtoes
     direction -1.53606e-011 -4.21943e-011 1   
     length 1.001   
     axis -90 -7.62852e-016 -20   XYZ
    dof rx
    limits (-90.0 20.0)
  end
  begin
     id 11 
     name lowerback
     direction 0.00141527 0.998403 -0.0564763   
     length 2.30486   
     axis 0 0 0   XYZ
    dof rx ry rz
    limits (-20.0 45.0)
           (-30.0 30.0)
           (-30.0 30.0)
  end
  begin
     id 12 
     name upperback
     direction 0.0125137 0.999915 0.00361315   
     length 2.30697   
     axis 0 0 0   XYZ
    dof rx ry rz
    limits (-20.0 45.0)
           (-30.0 30.0)
           (-30.0 30.0)
  end
  begin
     id 13 
     name thorax
     direction 0.0136417 0.999471 0.0295116   
     length 2.31005   
     axis 0 0 0   XYZ
    dof rx ry rz
    limits (-20.0 45.0)
           (-30.0 30.0)
           (-30.0 30.0)
  end
  begin
     id 14 
     name lowerneck
     direction 0.0766806 0.997047 0.00422047   
     length 1.68825   
     axis 0 0 0   XYZ
    dof rx ry rz
    limits (-20.0 45.0)
           (-30.0 30.0)
           (-30.0 30.0)
  end
  begin
     id 15 
     name upperneck
     direction -0.143512 0.985106 -0.0947088   
     length 1.69772   
     axis 0 0 0   XYZ
    dof rx ry rz
    limits (-20.0 45.0)
           (-30.0 30.0)
           (-30.0 30.0)
  end
  begin
     id 16
     name head
     direction -0.0539128 0.997849 -0.0372864  
     length 1.71187  
     axis 0 0 0   XYZ
    dof rx ry rz
    limits (-20.0 45.0)
           (-30.0 30.0)
           (-30.0 30.0)
  end
  begin
     id 17 
     name lclavicle
     direction 0.978251 0.207416 -0.00165765  
     length 3.35399  
     axis 0 0 0   XYZ
    dof ry rz
    limits (-20.0 10.0)
           (0.0 20.0)
  end
  begin
     id 18 
     name lhumerus
     direction 1 -4.48966e-011 -1.32191e-028   
     length 5.70706   
     axis 180 -30 -90   XYZ
    dof rx ry rz
    limits (-60.0 90.0)
           (-90.0 90.0)
           (-90.0 90.0)
  end
  begin
     id 19
     name lradius
     direction 1 -4.48976e-011 9.36106e-027   
     length 3.33243   
     axis 180 -30 -90   XYZ
    dof rx
    limits (-10.0 170.0)
  end
  begin
     id 20
     name lwrist
     direction 1 -4.48976e-011 1.1555e-026   
     length 1.66621   
     axis -5.7412e-015 90 90   XYZ
    dof ry
    limits (-180.0 0.0)
 end
  begin
     id 21 
     name lhand
     direction 1 -4.48939e-011 2.31113e-026   
     length 0.792687   
     axis -1.47463e-014 90 90   XYZ
    dof rx rz
    limits (-90.0 90.0)
           (-45.0 45.0)
  end
  begin
     id 22 
     name lfingers
     direction 1 -4.48866e-011 4.62274e-026   
     length 0.639085   
     axis -2.94925e-014 90 90   XYZ
    dof rx
    limits (0.0 90.0)
  end
  begin
     id 23
     name lthumb
     direction 0.707107 -6.34847e-011 0.707107   
     length 0.917601   
     axis -90 45 -6.68868e-015   XYZ
    dof rx rz
    limits (-45.0 45.0)
           (-45.0 45.0)
  end
  begin
     id 24 
     name rclavicle
     direction -0.981813 0.185514 0.0403428   
     length 3.47271  
     axis 0 0 0   XYZ 
    dof ry rz
    limits (-10.0 20.0)
           (-20.0 0.0)
  end
  begin
     id 25 
     name rhumerus
     direction -1 -4.48972e-011 -6.58544e-029  
     length 5.88176   
     axis 180 30 90   XYZ
    dof rx ry rz
    limits (-90.0 60.0)
           (-90.0 90.0)
           (-90.0 90.0)
  end
  begin
     id 26 
     name rradius
     direction -1 -4.48964e-011 8.36306e-027   
     length 3.28156   
     axis 180 30 90   XYZ
    dof rx
    limits (-10.0 170.0)
  end
  begin
     id 27 
     name rwrist
     direction -1 -4.48903e-011 1.15562e-026   
     length 1.64078   
     axis -5.7412e-015 -90 -90   XYZ
    dof ry
    limits (-180.0 0.0)
  end
  begin
     id 28
     name rhand
     direction -1 -4.49055e-011 2.31074e-026   
     length 0.863125   
     axis -1.47463e-014 -90 -90   XYZ
    dof rx rz
    limits (-90.0 90.0)
           (-45.0 45.0)
  end
  begin
     id 29
     name rfingers
     direction -1 -4.48994e-011 4.62188e-026   
     length 0.695873   
     axis -2.94925e-014 -90 -90   XYZ
    dof rx
    limits (0.0 90.0)
  end
  begin
     id 30
     name rthumb
     direction -0.707107 -6.35058e-011 0.707107   
     length 0.999139   
     axis -90 -45 6.68868e-015   XYZ
    dof rx rz
    limits (-45.0 45.0)
           (-45.0 45.0)
  end
:hierarchy
  begin
    root lhipjoint rhipjoint lowerback
    lhipjoint lfemur
    lfemur ltibia
    ltibia lfoot
    lfoot ltoes
    rhipjoint rfemur
    rfemur rtibia
    rtibia rfoot
    rfoot rtoes
    lowerback upperback
    upperback thorax
    thorax lowerneck lclavicle rclavicle
    lowerneck upperneck
    upperneck head
    lclavicle lhumerus
    lhumerus lradius
    lradius lwrist
    lwrist lhand lthumb
    lhand lfingers
    rclavicle rhumerus
    rhumerus rradius
    rradius rwrist
    rwrist rhand rthumb
    rhand rfingers
  end

#!OML:ASF \\Waltz\H\Terrain\Patient Classification 1\Animal2\Wednesday\Animal2.ASF
:FULLY-SPECIFIED
:DEGREES
1363
root 0.0547086 16.6561 3.0496 -1.99141 -19.967 15.2665
lowerback 5.35158 0.30465 -1.88241
upperback -3.07817 -0.160219 -6.56409
thorax -6.2582 -0.173964 -5.84083
lowerneck 22.2702 19.6123 15.46
upperneck -23.9133 26.0546 -28.7589
head -4.38961 14.9035 -13.3048
rclavicle -3.19038e-014 -7.79484e-014
rhumerus 29.0688 49.0044 -51.0251
rradius 93.9896
rwrist -20.6393
rhand -19.779 20.6948
rfingers 7.12502
rthumb 6.55321 -9.18377
lclavicle -3.19038e-014 -7.79484e-014
lhumerus 10.6835 12.5848 6.58372
lradius 77.0392
lwrist -10.1161
lhand -52.9179 16.749
lfingers 7.12502
lthumb -25.3871 45.0788
rfemur -25.5771 16.7125 3.24398
rtibia 59.9192
rfoot -35.6603 -1.73533
rtoes 23.7228
lfemur 7.64569 -5.60276 -13.3522
ltibia 10.2123
lfoot -9.77429 2.73958
ltoes -26.1206
1364
root -0.00438792 16.6517 3.02258 -1.62265 -19.316 14.1297
lowerback 5.65805 0.173306 -1.25679
upperback -3.05137 -0.277632 -6.25998
thorax -6.41487 -0.250766 -5.86347
lowerneck 22.904 19.1237 15.3551
upperneck -24.9472 25.2726 -28.892
head -4.97508 14.5575 -13.6778
rclavicle -1.42019e-014 -8.05885e-014
rhumerus 28.7656 49.2461 -51.1911
rradius 93.7547
rwrist -20.5597
rhand -20.613 21.2568
rfingers 7.12502
rthumb 5.74804 -8.64522
lclavicle -1.42019e-014 -8.05885e-014
lhumerus 10.8543 12.4828 6.89427
lradius 77.1811
lwrist -9.67499
lhand -53.2812 16.6946
lfingers 7.12502
lthumb -25.7351 44.9745
rfemur -25.0098 15.9445 4.7364
rtibia 59.3511
rfoot -35.7406 -1.13686
rtoes 25.0982
lfemur 5.67225 -5.94238 -12.0591
ltibia 13.7165
lfoot -11.3579 2.71109
ltoes -20.6903
1365
root -0.0618715 16.6497 2.99571 -1.26057 -18.6342 12.9905
lowerback 5.91825 0.0395385 -0.567249
upperback -2.95257 -0.385307 -6.00852
thorax -6.4706 -0.32541 -5.97743
lowerneck 22.757 18.6744 15.5128
upperneck -25.1007 24.6788 -28.8281
head -5.12327 14.2369 -13.7519
rclavicle -1.49302e-014 -7.42461e-014
rhumerus 28.597 49.2831 -51.2259
rradius 93.7341
rwrist -21.0782
rhand -20.4053 20.5883
rfingers 7.12502
rthumb 5.94849 -9.30818
lclavicle -1.49302e-014 -7.42461e-014
lhumerus 11.1987 12.5077 7.20387
lradius 77.4781
lwrist -9.10675
lhand -53.3729 16.728
lfingers 7.12502
lthumb -25.8229 44.9951
rfemur -24.4852 15.1075 6.2235
rtibia 58.8286
rfoot -35.6373 -1.72787
rtoes 22.6074
lfemur 3.69512 -5.98319 -10.8675
ltibia 17.1126
lfoot -12.2698 3.08473
ltoes -16.9183
1366
root -0.113859 16.643 2.97283 -0.933877 -18.0378 11.8718
lowerback 6.05264 -0.049855 0.0786765
upperback -2.80167 -0.423171 -5.69995
thorax -6.39159 -0.358843 -6.00926
lowerneck 21.9959 18.3014 15.7097
upperneck -24.4623 24.2528 -28.5621
head -4.92096 13.9539 -13.5476
rclavicle -1.41067e-014 -5.56597e-015
rhumerus 28.6834 49.5393 -50.8938
rradius 92.8844
rwrist -19.9649
rhand -22.7889 24.0618
rfingers 7.12502
rthumb 3.647 -5.88678
lclavicle -1.41067e-014 -5.56597e-015
lhumerus 11.5242 12.522 7.50192
lradius 77.7554
lwrist -8.50423
lhand -53.3082 17.3079
lfingers 7.12502
lthumb -25.761 45.5841
rfemur -24.0316 14.2628 7.65145
rtibia 58.3874
rfoot -35.5019 -2.48315
rtoes 19.2185
lfemur 1.8 -5.90291 -9.78155
ltibia 20.4366
lfoot -13.0467 4.09035
ltoes -17.2648
1367
root -0.162971 16.6299 2.95441 -0.643611 -17.3376 10.6091
lowerback 6.20933 -0.187141 0.811371
upperback -2.65369 -0.508787 -5.25001
thorax -6.33349 -0.415453 -5.93439
lowerneck 21.2617 17.9518 15.7502
upperneck -23.7561 23.8115 -28.3142
head -4.72568 13.6775 -13.3365
rclavicle 2.25205e-015 -6.76365e-014
rhumerus 28.6533 49.4945 -50.823
rradius 93.3493
rwrist -21.0964
rhand -19.8268 19.9063
rfingers 7.12502
rthumb 6.50697 -9.97378
lclavicle 2.25205e-015 -6.76365e-014
lhumerus 11.7634 12.2933 7.63631
lradius 77.8073
lwrist -7.58366
lhand -53.0725 18.6029
lfingers 7.12502
lthumb -25.5352 46.9116
rfemur -23.4472 13.3025 9.24601
rtibia 57.9641
rfoot -35.406 -2.56602
rtoes 18.1629
lfemur -0.0337059 -5.69961 -8.54521
ltibia 23.6971
lfoot -13.8003 5.29236
ltoes -19.2157
